<svg id="Layer_1" height="512" viewBox="0 0 512 512" width="512" xmlns="http://www.w3.org/2000/svg" data-name="Layer 1"><path d="m359.448 148.931v-20.809l-140.075-68.8-140.067 68.6v153.278c0 30.721 20.667 69.806 46.07 87.127l94.087 64.168 78.063-50.541.033.05a40.647 40.647 0 0 1 5.583-3.4 5.743 5.743 0 0 1 .645-.277l26.427-9.536v-9.277c0-.011 0-.022 0-.034a6 6 0 0 1 3.713-5.581l14.708-6.057a72.5 72.5 0 0 1 -43.989-62.2 22.925 22.925 0 0 1 -13.44-26.606 18.517 18.517 0 0 1 10.879-12.8l-1.231-17.854a76.254 76.254 0 0 1 58.592-79.447zm-75.575 75.506-79.11 72.463a6 6 0 0 1 -8.464-.357l-41.777-45.3a6 6 0 0 1 8.823-8.135l37.722 40.905 74.7-68.422a6 6 0 0 1 8.105 8.85z"/><path d="m365.6 387.15a5.745 5.745 0 0 1 .382-.58l-13.682-9.125a6 6 0 0 1 -1.67-1.113l-8.414-5.61v.4l15.81 21.08z"/><path d="m437.234 281.235v-.107a6 6 0 0 1 4.954-5.908 10.914 10.914 0 0 0 8.662-13.327 6.5 6.5 0 0 0 -2.5-3.8 12.855 12.855 0 0 1 -1.02 1.083l-5.59 5.217a6 6 0 0 1 -9.925-2.972l-10.249-42.248a21.7 21.7 0 0 0 -18.724-12.687l-3.312-.147a70.238 70.238 0 0 1 -62.685 26.439l-7.547-.812-2.068 25.864a6.155 6.155 0 0 1 -2.883 4.72c-2.62 1.623-5.067 1.476-15.259-2.61-.172-.069-.342-.147-.507-.231a11.353 11.353 0 0 1 -2.69-1.947 6.449 6.449 0 0 0 -3.026 4.13 10.911 10.911 0 0 0 8.688 13.333 6 6 0 0 1 4.965 5.91v.1a60.359 60.359 0 1 0 120.718 0z"/><path d="m393.416 368.608v-15.923a5.936 5.936 0 0 1 -.05-1 71.972 71.972 0 0 1 -32.632.076v16.885l16.312 10.875z"/><path d="m219.377 445.7a6 6 0 0 1 -3.377-1.045l-97.385-66.415c-28.292-19.289-51.309-62.822-51.309-97.04v-157.02a6 6 0 0 1 3.361-5.389l146.071-71.541a6.009 6.009 0 0 1 5.284 0l146.072 71.75a6 6 0 0 1 3.354 5.385v22.757c1.8-.124 3.607-.21 5.431-.21a77.958 77.958 0 0 1 11.586.866v-37.417l-169.072-83.04-169.1 82.821v170.632c0 40.676 25.357 88.637 58.982 111.563l110.1 75.086 61.015-41.879v-12.879c0-.166.007-.333.02-.5a40.7 40.7 0 0 1 .818-5.381l-58.581 37.928a5.99 5.99 0 0 1 -3.27.968z"/><path d="m376.88 158.931a64.206 64.206 0 0 0 -64.053 68.621l1.486 21.551c.509.2 1.022.4 1.528.586l1.763-22.038a8.72 8.72 0 0 1 9.626-7.977l10.895 1.171a58.2 58.2 0 0 0 53.609-24.118 6.026 6.026 0 0 1 5.155-2.517l6.48.287a33.751 33.751 0 0 1 29.423 20.4 6.138 6.138 0 0 1 .311.935l6.725 27.722 1.1-16a64.206 64.206 0 0 0 -64.052-68.621z"/><path d="m445.885 389.486-25.8-9.31-17.825 23.767a5.964 5.964 0 0 1 -7.882 1.531l9.464 37.609a6 6 0 0 1 -1.019 5.063l-20.416 27.222a6 6 0 0 1 -9.6 0l-20.416-27.222a6 6 0 0 1 -1.02-5.06l9.649-38.461-1.065.71a6 6 0 0 1 -8.128-1.392l-17.825-23.766-25.8 9.309a29.573 29.573 0 0 0 -15.827 23.461v71.712h169.33v-71.712a29.569 29.569 0 0 0 -15.82-23.461z"/><path d="m411.878 371.123v-.4l-8.816 5.878a5.965 5.965 0 0 1 -.691.46l-13.537 9.025a5.946 5.946 0 0 1 1.264 2.138l5.969 3.98z"/><path d="m391.509 443.236-11.989-47.643-2.474-1.649-1.167.777-12.17 48.513 13.9 18.534z"/></svg>